<svg width="345" height="78" viewBox="0 0 345 78" fill="none" xmlns="http://www.w3.org/2000/svg" >
<path d="M61.027 3.24V60H48.213V26.589L48.772 17.086L46.579 27.965L37.033 55.442H24.434L14.931 27.965L12.781 17.086L13.34 26.589V60H0.483V3.24H18.543L29.981 41.123L30.755 45.638L31.529 41.123L42.967 3.24H61.027ZM81.7328 45.122C81.8188 46.3833 82.2202 47.5013 82.9368 48.476C83.6535 49.4507 84.6425 50.2247 85.9038 50.798C87.1938 51.3427 88.7132 51.615 90.4618 51.615C92.1245 51.615 93.6152 51.443 94.9338 51.099C96.2812 50.755 97.4422 50.325 98.4168 49.809C99.4202 49.293 100.194 48.7627 100.739 48.218L105.813 56.302C105.096 57.076 104.079 57.8357 102.76 58.581C101.47 59.2977 99.7642 59.8853 97.6428 60.344C95.5215 60.8027 92.8412 61.032 89.6018 61.032C85.7032 61.032 82.2345 60.301 79.1958 58.839C76.1572 57.377 73.7635 55.227 72.0148 52.389C70.2662 49.551 69.3918 46.0823 69.3918 41.983C69.3918 38.543 70.1372 35.447 71.6278 32.695C73.1472 29.9143 75.3402 27.7213 78.2068 26.116C81.0735 24.482 84.5278 23.665 88.5698 23.665C92.4112 23.665 95.7365 24.3673 98.5458 25.772C101.384 27.1767 103.563 29.2693 105.082 32.05C106.63 34.802 107.404 38.242 107.404 42.37C107.404 42.5993 107.39 43.058 107.361 43.746C107.361 44.434 107.332 44.8927 107.275 45.122H81.7328ZM95.1058 38.285C95.0772 37.3677 94.8335 36.4647 94.3748 35.576C93.9162 34.6587 93.2282 33.9133 92.3108 33.34C91.3935 32.738 90.2182 32.437 88.7848 32.437C87.3515 32.437 86.1332 32.7237 85.1298 33.297C84.1552 33.8417 83.4098 34.5583 82.8938 35.447C82.3778 36.3357 82.0912 37.2817 82.0338 38.285H95.1058ZM129.295 61.032C125.884 61.032 122.917 60.2007 120.394 58.538C117.871 56.8467 115.908 54.5963 114.503 51.787C113.127 48.949 112.439 45.81 112.439 42.37C112.439 38.93 113.127 35.8053 114.503 32.996C115.908 30.158 117.871 27.8933 120.394 26.202C122.917 24.5107 125.884 23.665 129.295 23.665C131.56 23.665 133.566 24.0233 135.315 24.74C137.064 25.428 138.483 26.2593 139.572 27.234C140.661 28.18 141.321 29.0543 141.55 29.857V0.831998H154.622V60H141.679V54.281C141.134 55.3417 140.246 56.4023 139.013 57.463C137.78 58.495 136.333 59.3407 134.67 60C133.007 60.688 131.216 61.032 129.295 61.032ZM133.294 50.755C134.871 50.755 136.275 50.3967 137.508 49.68C138.769 48.9633 139.758 47.9743 140.475 46.713C141.192 45.423 141.55 43.9753 141.55 42.37C141.55 40.7647 141.192 39.3313 140.475 38.07C139.758 36.78 138.769 35.7767 137.508 35.06C136.275 34.3147 134.871 33.942 133.294 33.942C131.775 33.942 130.399 34.3147 129.166 35.06C127.962 35.7767 127.002 36.78 126.285 38.07C125.597 39.3313 125.253 40.7647 125.253 42.37C125.253 43.9753 125.597 45.423 126.285 46.713C127.002 47.9743 127.962 48.9633 129.166 49.68C130.399 50.3967 131.775 50.755 133.294 50.755ZM162.628 60V24.697H175.7V60H162.628ZM169.336 17.43C167.272 17.43 165.523 16.7133 164.09 15.28C162.657 13.818 161.94 12.0837 161.94 10.077C161.94 8.07033 162.657 6.336 164.09 4.874C165.552 3.38333 167.301 2.638 169.336 2.638C170.683 2.638 171.916 2.982 173.034 3.67C174.152 4.32933 175.055 5.218 175.743 6.336C176.431 7.454 176.775 8.701 176.775 10.077C176.775 12.0837 176.044 13.818 174.582 15.28C173.12 16.7133 171.371 17.43 169.336 17.43ZM200.53 23.665C202.852 23.665 204.973 23.8657 206.894 24.267C208.814 24.6397 210.42 25.0697 211.71 25.557C213.028 26.0443 213.874 26.4457 214.247 26.761L209.99 34.458C209.445 34.0567 208.427 33.5407 206.937 32.91C205.475 32.2793 203.841 31.964 202.035 31.964C200.659 31.964 199.498 32.179 198.552 32.609C197.606 33.0103 197.133 33.6553 197.133 34.544C197.133 35.4327 197.649 36.1493 198.681 36.694C199.741 37.21 201.261 37.6687 203.239 38.07C204.959 38.414 206.707 38.9587 208.485 39.704C210.262 40.4493 211.738 41.553 212.914 43.015C214.118 44.4483 214.72 46.369 214.72 48.777C214.72 51.2423 214.189 53.2777 213.129 54.883C212.068 56.4883 210.663 57.7353 208.915 58.624C207.166 59.5127 205.274 60.129 203.239 60.473C201.203 60.8457 199.225 61.032 197.305 61.032C194.61 61.032 192.259 60.7883 190.253 60.301C188.275 59.8137 186.669 59.2547 185.437 58.624C184.204 57.9933 183.344 57.4917 182.857 57.119L187.071 48.519C187.816 49.1497 189.034 49.8663 190.726 50.669C192.417 51.443 194.209 51.83 196.101 51.83C197.935 51.83 199.354 51.5577 200.358 51.013C201.361 50.4683 201.863 49.7517 201.863 48.863C201.863 48.1463 201.619 47.573 201.132 47.143C200.644 46.713 199.956 46.3403 199.068 46.025C198.179 45.7097 197.104 45.423 195.843 45.165C194.696 44.9357 193.478 44.5773 192.188 44.09C190.898 43.6027 189.679 42.9433 188.533 42.112C187.386 41.252 186.454 40.177 185.738 38.887C185.021 37.597 184.663 36.0347 184.663 34.2C184.663 31.8493 185.422 29.9 186.942 28.352C188.461 26.804 190.425 25.643 192.833 24.869C195.241 24.0663 197.806 23.665 200.53 23.665ZM239.461 48.691L249.007 24.697H261.821L237.569 77.888H224.497L232.667 60L217.918 24.697H230.947L239.461 48.691ZM290.214 23.665C292.679 23.665 295.087 24.1667 297.438 25.17C299.788 26.1733 301.723 27.7643 303.243 29.943C304.762 32.093 305.522 34.931 305.522 38.457V60H292.407V40.607C292.407 38.0843 291.805 36.1923 290.601 34.931C289.397 33.641 287.82 32.996 285.871 32.996C284.581 32.996 283.362 33.34 282.216 34.028C281.098 34.6873 280.18 35.6333 279.464 36.866C278.776 38.07 278.432 39.4603 278.432 41.037V60H265.36V24.697H278.432V29.9C278.776 28.954 279.492 28.008 280.582 27.062C281.7 26.0873 283.09 25.2847 284.753 24.654C286.444 23.9947 288.264 23.665 290.214 23.665ZM332.253 50.755C333.887 50.755 335.234 50.4827 336.295 49.938C337.356 49.3647 338.072 48.906 338.445 48.562L344.422 57.42C343.963 57.7927 343.175 58.28 342.057 58.882C340.939 59.4553 339.534 59.957 337.843 60.387C336.18 60.817 334.274 61.032 332.124 61.032C328.082 61.032 324.527 60.2723 321.46 58.753C318.393 57.205 315.999 55.0263 314.279 52.217C312.588 49.4077 311.742 46.111 311.742 42.327C311.742 38.5143 312.588 35.2177 314.279 32.437C315.999 29.6563 318.393 27.5063 321.46 25.987C324.527 24.439 328.082 23.665 332.124 23.665C334.245 23.665 336.137 23.8943 337.8 24.353C339.491 24.783 340.91 25.2847 342.057 25.858C343.204 26.4027 344.006 26.8757 344.465 27.277L338.359 36.221C338.158 36.0203 337.786 35.7337 337.241 35.361C336.725 34.9883 336.051 34.6587 335.22 34.372C334.389 34.0853 333.4 33.942 332.253 33.942C330.848 33.942 329.53 34.3003 328.297 35.017C327.093 35.7337 326.118 36.7227 325.373 37.984C324.628 39.2453 324.255 40.693 324.255 42.327C324.255 43.961 324.628 45.423 325.373 46.713C326.118 47.9743 327.093 48.9633 328.297 49.68C329.53 50.3967 330.848 50.755 332.253 50.755Z" fill="#FFFCCC"/>
</svg>
